<svg id="Group_5" data-name="Group 5" xmlns="http://www.w3.org/2000/svg" xmlns:xlink="http://www.w3.org/1999/xlink" width="80.211" height="53.181" viewBox="0 0 80.211 53.181">
  <defs>
    <linearGradient id="linear-gradient" x1="0.5" x2="0.5" y2="1" gradientUnits="objectBoundingBox">
      <stop offset="0" stop-color="#fff"/>
      <stop offset="1" stop-color="#c2f261"/>
    </linearGradient>
    <clipPath id="clip-path">
      <rect id="Rectangle_1849" data-name="Rectangle 1849" width="80.211" height="53.181" fill="url(#linear-gradient)"/>
    </clipPath>
  </defs>
  <g id="Group_4" data-name="Group 4" clip-path="url(#clip-path)">
    <path id="Path_27" data-name="Path 27" d="M70.049,159.812a8.264,8.264,0,1,0,8.263,8.265,8.274,8.274,0,0,0-8.263-8.265m0,12.957a4.693,4.693,0,1,1,4.693-4.692,4.7,4.7,0,0,1-4.693,4.692" transform="translate(-47.615 -123.159)" fill="url(#linear-gradient)"/>
    <path id="Path_28" data-name="Path 28" d="M267.578,159.812a8.264,8.264,0,1,0,8.265,8.265,8.274,8.274,0,0,0-8.265-8.265m0,12.957a4.693,4.693,0,1,1,4.694-4.692,4.7,4.7,0,0,1-4.694,4.692" transform="translate(-199.84 -123.159)" fill="url(#linear-gradient)"/>
    <path id="Path_29" data-name="Path 29" d="M77.312,0h-38a2.9,2.9,0,0,0-2.9,2.9V36.987h-2.9V7.4a1.453,1.453,0,0,0-1.452-1.452H16.487a5.683,5.683,0,0,0-4.4,2.489L3.38,22.945a12.341,12.341,0,0,0-1.494,5.388v8.654H1.45A1.452,1.452,0,0,0,0,38.438v5.029a1.45,1.45,0,0,0,1.45,1.45H12.385a10.05,10.05,0,1,1,20.1,0h25.2a10.051,10.051,0,0,1,20.1,0h2.423V2.9a2.9,2.9,0,0,0-2.9-2.9M30.6,22.776a1.45,1.45,0,0,1-1.449,1.451H7.443c-.8,0-1.116-.557-.7-1.244L14.581,9.928a2.875,2.875,0,0,1,1.907-1.08H29.155A1.45,1.45,0,0,1,30.6,10.3Z" transform="translate(0)" fill="url(#linear-gradient)"/>
  </g>
</svg>
