<svg xmlns="http://www.w3.org/2000/svg" xmlns:xlink="http://www.w3.org/1999/xlink" width="44.042" height="59.92" viewBox="0 0 44.042 59.92">
  <defs>
    <linearGradient id="linear-gradient" x1="0.5" x2="0.5" y2="1" gradientUnits="objectBoundingBox">
      <stop offset="0" stop-color="#fff"/>
      <stop offset="1" stop-color="#bef157"/>
    </linearGradient>
    <clipPath id="clip-path">
      <rect id="Rectangle_1851" data-name="Rectangle 1851" width="44.042" height="59.92" fill="url(#linear-gradient)"/>
    </clipPath>
  </defs>
  <g id="Group_9" data-name="Group 9" transform="translate(0 0)">
    <g id="Group_8" data-name="Group 8" transform="translate(0 0)" clip-path="url(#clip-path)">
      <path id="Path_32" data-name="Path 32" d="M37.591,22.312c-8.6,4.966-22.542,4.966-31.141,0C2.151,19.829,0,16.575,0,13.322v7.733c0,3.253,2.151,6.507,6.45,8.99,8.6,4.966,22.539,4.966,31.141,0,4.3-2.483,6.447-5.736,6.447-8.99V13.322c0,3.253-2.148,6.507-6.447,8.99" transform="translate(0 26.15)" fill="url(#linear-gradient)"/>
      <path id="Path_33" data-name="Path 33" d="M37.591,14.734c-8.6,4.966-22.542,4.966-31.141,0C2.151,12.251,0,9,0,5.744v7.733c0,3.253,2.151,6.507,6.45,8.99,8.6,4.966,22.539,4.966,31.141,0,4.3-2.483,6.447-5.736,6.447-8.99V5.744c0,3.253-2.148,6.507-6.447,8.99" transform="translate(0 11.274)" fill="url(#linear-gradient)"/>
      <path id="Path_34" data-name="Path 34" d="M37.591,18.523c-8.6,4.963-22.542,4.963-31.141,0C2.151,16.04,0,12.786,0,9.533v7.733c0,3.253,2.151,6.51,6.45,8.99,8.6,4.966,22.539,4.966,31.141,0,4.3-2.48,6.447-5.736,6.447-8.99V9.533c0,3.253-2.148,6.507-6.447,8.99" transform="translate(0 18.712)" fill="url(#linear-gradient)"/>
      <path id="Path_35" data-name="Path 35" d="M6.452,21.7c8.6,4.963,22.536,4.963,31.141,0s8.6-13.016,0-17.982-22.545-4.963-31.141,0-8.6,13.016,0,17.982" transform="translate(0.001 -0.001)" fill="url(#linear-gradient)"/>
    </g>
  </g>
</svg>
