<svg id="Group_11" data-name="Group 11" xmlns="http://www.w3.org/2000/svg" xmlns:xlink="http://www.w3.org/1999/xlink" width="44.852" height="65.666" viewBox="0 0 44.852 65.666">
  <defs>
    <radialGradient id="radial-gradient" cx="0.5" cy="0.5" r="0.5" gradientUnits="objectBoundingBox">
      <stop offset="0" stop-color="#f7ffe8"/>
      <stop offset="1" stop-color="#c8f371"/>
    </radialGradient>
    <clipPath id="clip-path">
      <rect id="Rectangle_1852" data-name="Rectangle 1852" width="44.852" height="65.666" fill="url(#radial-gradient)"/>
    </clipPath>
  </defs>
  <g id="Group_10" data-name="Group 10" clip-path="url(#clip-path)">
    <path id="Path_36" data-name="Path 36" d="M42.209,36.232a14.5,14.5,0,0,0-7.546-4.842,11.315,11.315,0,0,0,5.39-4.312,11.543,11.543,0,0,0,1.839-6.395,11.584,11.584,0,0,0-3.086-8.021,13.088,13.088,0,0,0-7.123-4.257,32.636,32.636,0,0,0-3.392-.492V0h-5.6V7.6q-1.475-.035-3.115-.035H17.985V0h-5.6V7.565H0V15.2H5.921a1.308,1.308,0,0,1,1.308,1.308V49.4a1.308,1.308,0,0,1-1.306,1.308L0,50.72v7.674H12.38v7.271h5.6V58.394H20c.94,0,1.836-.009,2.692-.027v7.3h5.6V58.078q1.223-.114,2.251-.269a22.837,22.837,0,0,0,7.123-2.266,13.384,13.384,0,0,0,5.221-4.75,12.407,12.407,0,0,0,1.966-6.833,12.211,12.211,0,0,0-2.642-7.729M22.148,15.2q9.405,0,9.405,5.984a5.51,5.51,0,0,1-2.08,4.67q-2.081,1.587-7.325,1.587h-4.58V15.2Zm10.621,32.78a7.328,7.328,0,0,1-4.2,2.254,48.961,48.961,0,0,1-8.107.479H17.644V36.329H21.93a32.147,32.147,0,0,1,6.911.571,7.574,7.574,0,0,1,4,2.285,6.085,6.085,0,0,1,1.554,4.245,6.483,6.483,0,0,1-1.625,4.554" fill="url(#radial-gradient)"/>
  </g>
</svg>
